<svg width="398" height="45" viewBox="0 0 398 45" fill="none" xmlns="http://www.w3.org/2000/svg">
<path d="M0.988375 35V1.16H7.18038L18.6044 21.944L29.9804 1.16H36.0764V35H29.3084V14.36L20.5724 29.912H16.3964L7.70838 14.504V35H0.988375ZM50.2833 35.528C48.5233 35.528 46.9713 35.192 45.6273 34.52C44.2833 33.848 43.2113 32.936 42.4113 31.784C41.6433 30.632 41.2593 29.336 41.2593 27.896C41.2593 26.2 41.7073 24.84 42.6033 23.816C43.4993 22.792 44.9553 22.072 46.9713 21.656C48.9873 21.208 51.6593 20.984 54.9873 20.984H56.7153V20.168C56.7153 18.76 56.3953 17.768 55.7553 17.192C55.1153 16.584 54.0273 16.28 52.4913 16.28C51.2113 16.28 49.8513 16.488 48.4113 16.904C47.0033 17.288 45.5953 17.88 44.1873 18.68L42.2193 13.832C43.0513 13.288 44.0593 12.792 45.2433 12.344C46.4593 11.896 47.7233 11.56 49.0353 11.336C50.3473 11.08 51.5953 10.952 52.7793 10.952C56.4273 10.952 59.1473 11.784 60.9393 13.448C62.7313 15.08 63.6273 17.624 63.6273 21.08V35H56.8593V31.448C56.3793 32.696 55.5633 33.688 54.4113 34.424C53.2913 35.16 51.9153 35.528 50.2833 35.528ZM51.9153 30.68C53.2593 30.68 54.3953 30.216 55.3233 29.288C56.2513 28.36 56.7153 27.16 56.7153 25.688V24.728H55.0353C52.5713 24.728 50.8273 24.952 49.8033 25.4C48.7793 25.816 48.2673 26.552 48.2673 27.608C48.2673 28.504 48.5713 29.24 49.1793 29.816C49.8193 30.392 50.7313 30.68 51.9153 30.68ZM69.034 35V11.432H76.138V15.512C77.258 12.76 79.658 11.24 83.338 10.952L85.45 10.808L85.882 16.904L81.802 17.336C78.218 17.688 76.426 19.512 76.426 22.808V35H69.034ZM88.8153 35V1.16H96.0633V21.176H96.1593L104.847 11.432H113.439L103.455 22.712L113.919 35H105.183L96.1593 24.824H96.0633V35H88.8153ZM127.446 35.528C124.662 35.528 122.262 35.032 120.246 34.04C118.262 33.016 116.726 31.592 115.638 29.768C114.582 27.912 114.054 25.736 114.054 23.24C114.054 20.808 114.566 18.68 115.59 16.856C116.646 15 118.07 13.56 119.862 12.536C121.686 11.48 123.782 10.952 126.15 10.952C129.574 10.952 132.294 12.04 134.31 14.216C136.326 16.36 137.334 19.272 137.334 22.952V24.776H120.966C121.222 26.632 121.894 27.992 122.982 28.856C124.102 29.688 125.638 30.104 127.59 30.104C128.87 30.104 130.166 29.912 131.478 29.528C132.79 29.144 133.974 28.552 135.03 27.752L136.95 32.6C135.766 33.496 134.31 34.216 132.582 34.76C130.886 35.272 129.174 35.528 127.446 35.528ZM126.438 15.752C124.902 15.752 123.654 16.216 122.694 17.144C121.766 18.072 121.19 19.368 120.966 21.032H131.334C131.142 17.512 129.51 15.752 126.438 15.752ZM152.977 35.528C146.353 35.528 143.041 32.312 143.041 25.88V16.856H138.577V11.432H143.041V4.52H150.289V11.432H157.249V16.856H150.289V25.592C150.289 26.936 150.593 27.944 151.201 28.616C151.841 29.288 152.849 29.624 154.225 29.624C154.641 29.624 155.073 29.576 155.521 29.48C156.001 29.384 156.513 29.256 157.057 29.096L158.113 34.376C157.441 34.728 156.641 35 155.713 35.192C154.785 35.416 153.873 35.528 152.977 35.528ZM160.527 6.872V0.103997H168.351V6.872H160.527ZM160.815 35V11.432H168.063V35H160.815ZM173.659 35V11.432H180.763V14.888C181.563 13.608 182.635 12.632 183.979 11.96C185.323 11.288 186.827 10.952 188.491 10.952C191.275 10.952 193.355 11.768 194.731 13.4C196.107 15 196.795 17.48 196.795 20.84V35H189.547V21.176C189.547 19.544 189.243 18.376 188.635 17.672C188.027 16.936 187.131 16.568 185.947 16.568C184.411 16.568 183.179 17.048 182.251 18.008C181.355 18.968 180.907 20.248 180.907 21.848V35H173.659ZM213.534 44.168C211.262 44.168 209.134 43.928 207.15 43.448C205.198 42.968 203.486 42.216 202.014 41.192L203.982 36.248C205.262 37.048 206.702 37.656 208.302 38.072C209.934 38.52 211.47 38.744 212.91 38.744C217.006 38.744 219.054 36.856 219.054 33.08V30.392C218.414 31.608 217.406 32.584 216.03 33.32C214.654 34.056 213.15 34.424 211.518 34.424C209.406 34.424 207.566 33.944 205.998 32.984C204.43 31.992 203.214 30.616 202.35 28.856C201.486 27.096 201.054 25.032 201.054 22.664C201.054 20.328 201.486 18.28 202.35 16.52C203.214 14.76 204.43 13.4 205.998 12.44C207.566 11.448 209.406 10.952 211.518 10.952C213.214 10.952 214.734 11.32 216.078 12.056C217.422 12.792 218.414 13.768 219.054 14.984V11.432H226.11V32.264C226.11 36.232 225.038 39.208 222.894 41.192C220.75 43.176 217.63 44.168 213.534 44.168ZM213.678 29C215.278 29 216.558 28.44 217.518 27.32C218.51 26.2 219.006 24.648 219.006 22.664C219.006 20.68 218.51 19.144 217.518 18.056C216.558 16.936 215.278 16.376 213.678 16.376C212.046 16.376 210.75 16.936 209.79 18.056C208.83 19.144 208.35 20.68 208.35 22.664C208.35 24.648 208.83 26.2 209.79 27.32C210.75 28.44 212.046 29 213.678 29Z" fill="#4880FF"/>
<path d="M245.721 35V1.16H253.161V14.744H268.905V1.16H276.345V35H268.905V20.936H253.161V35H245.721ZM294.79 35.528C292.006 35.528 289.606 35.032 287.59 34.04C285.606 33.016 284.07 31.592 282.982 29.768C281.926 27.912 281.398 25.736 281.398 23.24C281.398 20.808 281.91 18.68 282.934 16.856C283.99 15 285.414 13.56 287.206 12.536C289.03 11.48 291.126 10.952 293.494 10.952C296.918 10.952 299.638 12.04 301.654 14.216C303.67 16.36 304.678 19.272 304.678 22.952V24.776H288.31C288.566 26.632 289.238 27.992 290.326 28.856C291.446 29.688 292.982 30.104 294.934 30.104C296.214 30.104 297.51 29.912 298.822 29.528C300.134 29.144 301.318 28.552 302.374 27.752L304.294 32.6C303.11 33.496 301.654 34.216 299.926 34.76C298.23 35.272 296.518 35.528 294.79 35.528ZM293.782 15.752C292.246 15.752 290.998 16.216 290.038 17.144C289.11 18.072 288.534 19.368 288.31 21.032H298.678C298.486 17.512 296.854 15.752 293.782 15.752ZM317.677 35.528C314.637 35.528 312.413 34.744 311.005 33.176C309.597 31.576 308.893 29.208 308.893 26.072V1.16H316.141V25.784C316.141 28.344 317.277 29.624 319.549 29.624C319.901 29.624 320.237 29.608 320.557 29.576C320.909 29.544 321.245 29.48 321.565 29.384L321.469 35C320.253 35.352 318.989 35.528 317.677 35.528ZM324.878 43.64V11.432H331.982V14.936C332.622 13.72 333.598 12.76 334.91 12.056C336.254 11.32 337.758 10.952 339.422 10.952C341.47 10.952 343.262 11.448 344.798 12.44C346.366 13.432 347.582 14.84 348.446 16.664C349.31 18.488 349.742 20.664 349.742 23.192C349.742 25.72 349.31 27.912 348.446 29.768C347.582 31.592 346.366 33.016 344.798 34.04C343.262 35.032 341.47 35.528 339.422 35.528C337.854 35.528 336.414 35.192 335.102 34.52C333.822 33.848 332.83 32.952 332.126 31.832V43.64H324.878ZM337.262 30.104C338.798 30.104 340.046 29.544 341.006 28.424C341.966 27.304 342.446 25.56 342.446 23.192C342.446 20.856 341.966 19.144 341.006 18.056C340.046 16.936 338.798 16.376 337.262 16.376C335.694 16.376 334.43 16.936 333.47 18.056C332.51 19.144 332.03 20.856 332.03 23.192C332.03 25.56 332.51 27.304 333.47 28.424C334.43 29.544 335.694 30.104 337.262 30.104ZM366.415 35.528C363.631 35.528 361.231 35.032 359.215 34.04C357.231 33.016 355.695 31.592 354.607 29.768C353.551 27.912 353.023 25.736 353.023 23.24C353.023 20.808 353.535 18.68 354.559 16.856C355.615 15 357.039 13.56 358.831 12.536C360.655 11.48 362.751 10.952 365.119 10.952C368.543 10.952 371.263 12.04 373.279 14.216C375.295 16.36 376.303 19.272 376.303 22.952V24.776H359.935C360.191 26.632 360.863 27.992 361.951 28.856C363.071 29.688 364.607 30.104 366.559 30.104C367.839 30.104 369.135 29.912 370.447 29.528C371.759 29.144 372.943 28.552 373.999 27.752L375.919 32.6C374.735 33.496 373.279 34.216 371.551 34.76C369.855 35.272 368.143 35.528 366.415 35.528ZM365.407 15.752C363.871 15.752 362.623 16.216 361.663 17.144C360.735 18.072 360.159 19.368 359.935 21.032H370.303C370.111 17.512 368.479 15.752 365.407 15.752ZM380.518 35V11.432H387.622V15.512C388.742 12.76 391.142 11.24 394.822 10.952L396.934 10.808L397.366 16.904L393.286 17.336C389.702 17.688 387.91 19.512 387.91 22.808V35H380.518Z" fill="#202224"/>
</svg>
